# xmcd
#
# Track frame offsets:
# 151
# 16787
# 35417
# 50292
# 65975
# 85034
# 101549
# 124050
# 136857
# 153229
#
# Disc length: 2254 seconds
#
#
# Revision: 0
# Processed by: cddbd v1.5.2PL0 Copyright (c) Steve Scherf et al.
# Submitted via: FreeRIP 2.51 
#
DISCID=7708cc0a
DTITLE=VINKO COCE - LJUBAV JE KA I CVIT
DYEAR=1998
DGENRE=Ballad
TTITLE0=Ljubav je ka i cvit
TTITLE1=Juznjaci
TTITLE2=Dalmatinko, crno oko moje
TTITLE3=Sto mandolina
TTITLE4=Pjesmom te ljubim
TTITLE5=Izlici mi dusu pismo
TTITLE6=Ribari
TTITLE7=Mi pivamo po domacu
TTITLE8=To je moj put
TTITLE9=Pjesma ostaje
EXTD=
EXTT0=
EXTT1=
EXTT2=
EXTT3=
EXTT4=
EXTT5=
EXTT6=
EXTT7=
EXTT8=
EXTT9=
PLAYORDER=
